# xmcd CD database file
#
# Track frame offsets:
#	150
#	19047
#	36549
#	72046
#	110628
#	135725
#	161682
#	184414
#	209196
#	230273
#	251515
#	277137
#	299184
#	323421
#	340918
#
# Disc length: 4761 seconds
#
# Revision: 0
# Processed by: cddbd v1.5.1PL0 Copyright (c) Steve Scherf et al.
# Submitted via: CDex 1.50
#
DISCID=f312970f
DTITLE=Gilberto Santa Rosa - Lo Mejor
DYEAR=1900
DGENRE=Salsa
TTITLE0=Pueden Decir
TTITLE1=Pero No Me Ama
TTITLE2=Perdoname (Live)
TTITLE3=Vivir Sin Ella (Live)
TTITLE4=La Concienca
TTITLE5=Me Volvieron a Hablar de Ella
TTITLE6=Sin Voluntad
TTITLE7=Dejame Sentirte
TTITLE8=Mal Herido
TTITLE9=Dejate Querer
TTITLE10=Amor Mio no te Vayas
TTITLE11=Te Propongo
TTITLE12=Que Manera de Quererte
TTITLE13=Sin Voluntad (Live con Sinfonica)
TTITLE14=Ay Garino
EXTD=
EXTT0=
EXTT1=
EXTT2=
EXTT3=
EXTT4=
EXTT5=
EXTT6=
EXTT7=
EXTT8=
EXTT9=
EXTT10=
EXTT11=
EXTT12=
EXTT13=
EXTT14=
PLAYORDER=
